<svg id="Layer_1" data-name="Layer 1" xmlns="http://www.w3.org/2000/svg" xmlns:xlink="http://www.w3.org/1999/xlink" viewBox="0 0 52.78 52.72"><defs><style>.cls-1{fill:#161d21;}.cls-2{fill:url(#linear-gradient);}.cls-3{fill:#e53a35;}.cls-11,.cls-12,.cls-13,.cls-31,.cls-4,.cls-43,.cls-5{opacity:0.2;}.cls-5{fill:#eee;}.cls-11,.cls-12,.cls-13,.cls-14,.cls-25,.cls-29,.cls-31,.cls-43,.cls-5{isolation:isolate;}.cls-6{fill:#a16541;}.cls-7{fill:url(#radial-gradient);}.cls-8{fill:url(#radial-gradient-2);}.cls-11,.cls-9{fill:#b0bec5;}.cls-10{fill:url(#radial-gradient-4);}.cls-12{fill:#90a4ae;}.cls-13,.cls-14{fill:#d0d8dc;}.cls-14{opacity:0.1;}.cls-15{fill:url(#radial-gradient-5);}.cls-16{fill:url(#linear-gradient-2);}.cls-17{fill:#568b3e;}.cls-18{fill:url(#linear-gradient-3);}.cls-19{fill:url(#radial-gradient-6);}.cls-20{fill:url(#linear-gradient-4);}.cls-21{fill:#fdd836;}.cls-22{fill:#f9bf2c;}.cls-23{fill:#f9a823;}.cls-24{fill:url(#linear-gradient-5);}.cls-25,.cls-29{opacity:0.5;}.cls-25{fill:url(#linear-gradient-6);}.cls-26{fill:url(#radial-gradient-7);}.cls-27{fill:url(#linear-gradient-7);}.cls-28{fill:url(#linear-gradient-8);}.cls-29{fill:url(#linear-gradient-9);}.cls-30{fill:url(#linear-gradient-10);}.cls-31{fill:#434343;}.cls-32{fill:#f47c20;}.cls-33{fill:#f37021;}.cls-34{fill:#fcb316;}.cls-35{fill:#f78f1e;}.cls-36{fill:url(#radial-gradient-8);}.cls-37{fill:url(#radial-gradient-9);}.cls-38{fill:url(#radial-gradient-10);}.cls-39{fill:url(#radial-gradient-11);}.cls-40{fill:#af5c2b;}.cls-41{fill:#8b4a22;}.cls-42{fill:#c56e39;}.cls-43{fill:#212121;}.cls-44{fill:#1e5f30;}.cls-45{fill:#4d803b;}.cls-46{fill:#b7ce7a;}.cls-47{fill:#b3ca62;}.cls-48{fill:#cee298;}.cls-49{fill:#c4dc72;}.cls-50{fill:#f9ebbb;}.cls-51{fill:#dee67c;}.cls-52{fill:#ccb795;}.cls-53{fill:url(#radial-gradient-12);}.cls-54{fill:url(#radial-gradient-13);}.cls-55{fill:url(#radial-gradient-14);}.cls-56{fill:url(#radial-gradient-15);}</style><linearGradient id="linear-gradient" x1="3.64" y1="56.22" x2="50.91" y2="8.94" gradientTransform="matrix(1, 0, 0, -1, 0, 56)" gradientUnits="userSpaceOnUse"><stop offset="0.22" stop-color="#434343"/><stop offset="0.56" stop-color="#323535"/><stop offset="0.9" stop-color="#404141"/></linearGradient><radialGradient id="radial-gradient" cx="-883.47" cy="541.34" r="1" gradientTransform="matrix(19.21, 0, 0, -19.21, 16985.75, 10423.46)" gradientUnits="userSpaceOnUse"><stop offset="0.41" stop-color="#fff"/><stop offset="0.72" stop-color="#eceff0"/><stop offset="0.97" stop-color="#d0d8dc"/></radialGradient><radialGradient id="radial-gradient-2" cx="-879.53" cy="539.18" r="1" gradientTransform="matrix(17.76, 0, 0, -17.76, 15641.13, 9607.21)" gradientUnits="userSpaceOnUse"><stop offset="0.23" stop-color="#fff"/><stop offset="0.63" stop-color="#eceff0"/><stop offset="0.97" stop-color="#d0d8dc"/></radialGradient><radialGradient id="radial-gradient-4" cx="-475.55" cy="348.83" r="1" gradientTransform="matrix(2.04, 0, 0, -2.34, 987.95, 844.38)" gradientUnits="userSpaceOnUse"><stop offset="0.14" stop-color="#f47c20"/><stop offset="0.88" stop-color="#e45325"/></radialGradient><radialGradient id="radial-gradient-5" cx="-804.53" cy="481.9" r="1" gradientTransform="matrix(7.31, 0, 0, -5.95, 5894.32, 2870.25)" gradientUnits="userSpaceOnUse"><stop offset="0.05" stop-color="#ffcb28"/><stop offset="1" stop-color="#f9a01b"/></radialGradient><linearGradient id="linear-gradient-2" x1="11.81" y1="42.29" x2="11.81" y2="50.01" gradientTransform="matrix(1, 0, 0, -1, 0, 56)" gradientUnits="userSpaceOnUse"><stop offset="0.03" stop-color="#f37021"/><stop offset="1" stop-color="#f9a01b"/></linearGradient><linearGradient id="linear-gradient-3" x1="11.95" y1="50.97" x2="11.95" y2="42.85" gradientTransform="matrix(1, 0, 0, -1, 0, 56)" gradientUnits="userSpaceOnUse"><stop offset="0" stop-color="#bfca33"/><stop offset="0.87" stop-color="#679f42"/></linearGradient><radialGradient id="radial-gradient-6" cx="-804.53" cy="481.9" r="1" gradientTransform="matrix(7.31, 0, 0, -5.95, 5894.32, 2875.7)" gradientUnits="userSpaceOnUse"><stop offset="0.06" stop-color="#ffcb28"/><stop offset="1" stop-color="#f9a01b"/></radialGradient><linearGradient id="linear-gradient-4" x1="11.81" y1="36.84" x2="11.81" y2="44.56" xlink:href="#linear-gradient-2"/><linearGradient id="linear-gradient-5" x1="11.76" y1="45.37" x2="11.76" y2="37.25" xlink:href="#linear-gradient-3"/><linearGradient id="linear-gradient-6" x1="11.75" y1="38.08" x2="11.75" y2="43.46" gradientTransform="matrix(1, 0, 0, -1, 0, 56)" gradientUnits="userSpaceOnUse"><stop offset="0" stop-color="#346a34" stop-opacity="0.6"/><stop offset="0.93" stop-color="#679f42" stop-opacity="0"/></linearGradient><radialGradient id="radial-gradient-7" cx="-804.53" cy="481.9" r="1" gradientTransform="matrix(7.31, 0, 0, -5.95, 5894.32, 2881.65)" gradientUnits="userSpaceOnUse"><stop offset="0.06" stop-color="#ffcb28"/><stop offset="1" stop-color="#f9a01b"/></radialGradient><linearGradient id="linear-gradient-7" x1="11.81" y1="33.07" x2="11.81" y2="38.62" xlink:href="#linear-gradient-2"/><linearGradient id="linear-gradient-8" x1="11.74" y1="39.56" x2="11.74" y2="31.44" xlink:href="#linear-gradient-3"/><linearGradient id="linear-gradient-9" x1="11.62" y1="33.49" x2="11.62" y2="37.76" xlink:href="#linear-gradient-6"/><linearGradient id="linear-gradient-10" x1="42.93" y1="14.98" x2="42.93" y2="29.58" gradientTransform="matrix(1, 0, 0, -1, 0, 56)" gradientUnits="userSpaceOnUse"><stop offset="0" stop-color="#8d401e"/><stop offset="0.65" stop-color="#bb5b27"/></linearGradient><radialGradient id="radial-gradient-8" cx="361.2" cy="-142.43" r="1" gradientTransform="matrix(0.72, 0, 0, -0.72, -212.59, -72.45)" gradientUnits="userSpaceOnUse"><stop offset="0.2" stop-color="#8bc249"/><stop offset="1" stop-color="#679f42"/></radialGradient><radialGradient id="radial-gradient-9" cx="361.2" cy="-142.43" r="1" gradientTransform="matrix(0.72, 0, 0, -0.72, -221.99, -67.83)" xlink:href="#radial-gradient-8"/><radialGradient id="radial-gradient-10" cx="361.2" cy="-142.43" r="1" gradientTransform="matrix(0.72, 0, 0, -0.72, -214, -66.77)" xlink:href="#radial-gradient-8"/><radialGradient id="radial-gradient-11" cx="361.19" cy="-142.42" r="1" gradientTransform="matrix(0.72, 0, 0, -0.72, -216.65, -61.88)" xlink:href="#radial-gradient-8"/><radialGradient id="radial-gradient-12" cx="-853.99" cy="525.42" r="1" gradientTransform="matrix(11.95, 0, 0, -12.02, 10230.07, 6321.39)" gradientUnits="userSpaceOnUse"><stop offset="0.45" stop-color="#fff3e1"/><stop offset="1" stop-color="#ffe0b2"/></radialGradient><radialGradient id="radial-gradient-13" cx="-658.09" cy="418.47" r="1" gradientTransform="matrix(3.4, 0, 0, -3.42, 2267.78, 1439.92)" gradientUnits="userSpaceOnUse"><stop offset="0" stop-color="#f36e21"/><stop offset="1" stop-color="#faaa43"/></radialGradient><radialGradient id="radial-gradient-14" cx="-853.99" cy="525.42" r="1" gradientTransform="matrix(11.95, 0, 0, -12.02, 10230.07, 6331.86)" xlink:href="#radial-gradient-12"/><radialGradient id="radial-gradient-15" cx="-658.09" cy="418.47" r="1" gradientTransform="matrix(3.4, 0, 0, -3.42, 2267.78, 1450.4)" xlink:href="#radial-gradient-13"/></defs><path class="cls-1" d="M48.76,53H5.46A3.51,3.51,0,0,1,2,50L.72,42.86H53.5L52.23,50A3.52,3.52,0,0,1,48.76,53Z" transform="translate(-0.72 -0.39)"/><path class="cls-2" d="M49.88,46.13H4.35A3.63,3.63,0,0,1,.72,42.5V4A3.63,3.63,0,0,1,4.35.39H49.88A3.62,3.62,0,0,1,53.5,4v38.5A3.62,3.62,0,0,1,49.88,46.13Z" transform="translate(-0.72 -0.39)"/><path class="cls-3" d="M16.9,22.25h-10A2.72,2.72,0,0,1,4.2,19.53v-14A2.72,2.72,0,0,1,6.92,2.79h10a2.72,2.72,0,0,1,2.72,2.72v14A2.72,2.72,0,0,1,16.9,22.25Z" transform="translate(-0.72 -0.39)"/><g class="cls-4"><path class="cls-5" d="M49.73,1.93a2.36,2.36,0,0,1,2.36,2.36v38.2c0,.09,0,.18,0,.32a.75.75,0,0,0,0,.26l-1.22,6.87a2.09,2.09,0,0,1-2.07,1.76H5.46a2.11,2.11,0,0,1-2.08-1.78L2.17,43.07a2.17,2.17,0,0,0,0-.26,2,2,0,0,1,0-.32V4.29A2.36,2.36,0,0,1,4.49,1.93Zm0-1.41H4.49A3.77,3.77,0,0,0,.72,4.29v38.2a4.21,4.21,0,0,0,0,.5h0L2,50.17a3.52,3.52,0,0,0,3.47,2.94h43.3a3.5,3.5,0,0,0,3.47-2.94L53.5,43h0a4.07,4.07,0,0,0,0-.5V4.29A3.77,3.77,0,0,0,49.73.52Z" transform="translate(-0.72 -0.39)"/></g><path class="cls-3" d="M4.07,40.19V29.29a2.72,2.72,0,0,1,2.72-2.72H29.52a2.72,2.72,0,0,1,2.72,2.72v10.9a2.72,2.72,0,0,1-2.72,2.72H6.79A2.72,2.72,0,0,1,4.07,40.19Z" transform="translate(-0.72 -0.39)"/><path class="cls-3" d="M35.85,40V29.53a2.72,2.72,0,0,1,2.72-2.72h8.74A2.72,2.72,0,0,1,50,29.53V40a2.72,2.72,0,0,1-2.72,2.72H38.57A2.72,2.72,0,0,1,35.85,40Z" transform="translate(-0.72 -0.39)"/><path class="cls-3" d="M47.74,22.48H25.44a2.72,2.72,0,0,1-2.72-2.72V5.51a2.72,2.72,0,0,1,2.72-2.72h22.3a2.72,2.72,0,0,1,2.72,2.72V19.76A2.72,2.72,0,0,1,47.74,22.48Z" transform="translate(-0.72 -0.39)"/><path class="cls-6" d="M42.13,28.16h-.44v.44h.44Z" transform="translate(-0.72 -0.39)"/><path class="cls-7" d="M33.78,44.84H2l.42-8A11.14,11.14,0,0,1,12.21,27a46.21,46.21,0,0,1,5.7-.32,46.26,46.26,0,0,1,5.71.32,11.14,11.14,0,0,1,9.75,9.82Z" transform="translate(-0.72 -0.39)"/><path class="cls-8" d="M32.8,45.19a1.95,1.95,0,1,0-1.95-1.94A1.94,1.94,0,0,0,32.8,45.19Z" transform="translate(-0.72 -0.39)"/><path class="cls-7" d="M33.37,38.28a2,2,0,0,0,.85-1.61,1.92,1.92,0,0,0-.68-1.47,1.12,1.12,0,0,1-.34-1.05,1.84,1.84,0,0,0,0-.33,2,2,0,0,0-1.95-1.95h0a1.86,1.86,0,0,0,0-.34,2,2,0,0,0-1.95-2,2,2,0,0,0-1.95-1.95h-.23a1.13,1.13,0,0,1-1-.44,1.94,1.94,0,0,0-1.5-.72,1.84,1.84,0,0,0-.77.17.81.81,0,0,1-.88-.14,1.9,1.9,0,0,0-1.29-.5,1.88,1.88,0,0,0-.92.24.75.75,0,0,1-.89-.11,1.93,1.93,0,0,0-1.37-.57,1.87,1.87,0,0,0-1.06.33.88.88,0,0,1-1,0,1.85,1.85,0,0,0-1.06-.33,2,2,0,0,0-1.44.64,1,1,0,0,1-1,.24,2.12,2.12,0,0,0-.57-.08,1.93,1.93,0,0,0-1.18.4,1.53,1.53,0,0,1-1.24.34,1.67,1.67,0,0,0-.39-.05,2,2,0,0,0-1.92,1.59l-.24,0a1.94,1.94,0,0,0-1.93,1.77h0a1.94,1.94,0,0,0-1.95,1.94v.05a1,1,0,0,1-.46.87,1.94,1.94,0,0,0-.56,2.67A1.92,1.92,0,0,0,2,37.25a2,2,0,0,0,.64,1.44,1.94,1.94,0,0,0,.14,3,1.94,1.94,0,1,0,2.32,0,1.93,1.93,0,0,0,.79-1.56,2,2,0,0,0-.64-1.44,2,2,0,0,0,.34-2.49,2,2,0,0,0,.53-1.33A1.8,1.8,0,0,0,6,34.21a1.93,1.93,0,0,0,1.44-1.69h0A1.94,1.94,0,0,0,9.4,30.94l.25,0a1.93,1.93,0,0,0,1.71-1,2,2,0,0,0,2.91-.87A1.91,1.91,0,0,0,17,28.7a1.93,1.93,0,0,0,3,.13,1.93,1.93,0,0,0,1.73,1.08A2,2,0,0,0,23,29.43a1.94,1.94,0,0,0,1.67,1,2,2,0,0,0,.88-.22,1.94,1.94,0,0,0,1.85,1.36,1.94,1.94,0,0,0,1.94,1.95h0a1.86,1.86,0,0,0,0,.34,2,2,0,0,0,1.29,1.83,1.88,1.88,0,0,0-.3,1,1.93,1.93,0,0,0,1.37,1.85,2,2,0,1,0,1.69-.24Z" transform="translate(-0.72 -0.39)"/><path class="cls-9" d="M17.64,32.82A2.17,2.17,0,0,0,20,30.9,2.17,2.17,0,0,0,17.64,29a2.17,2.17,0,0,0-2.35,1.92A2.17,2.17,0,0,0,17.64,32.82Z" transform="translate(-0.72 -0.39)"/><path class="cls-10" d="M17.64,32A2.17,2.17,0,0,0,20,30.1a2.18,2.18,0,0,0-2.35-1.93,2.17,2.17,0,0,0-2.35,1.93A2.17,2.17,0,0,0,17.64,32Z" transform="translate(-0.72 -0.39)"/><path class="cls-11" d="M9.32,38.78c.06-.36-.5-.75-1.25-.87s-1.39.08-1.45.44.5.76,1.24.88S9.26,39.15,9.32,38.78Z" transform="translate(-0.72 -0.39)"/><path class="cls-11" d="M12.27,41.16c.06-.37-.37-.74-.95-.83s-1.1.13-1.16.49.37.74.95.83S12.21,41.52,12.27,41.16Z" transform="translate(-0.72 -0.39)"/><path class="cls-11" d="M5,37.51c.64-.41,1-1,.79-1.31s-.88-.23-1.52.18-1,1-.78,1.31S4.4,37.92,5,37.51Z" transform="translate(-0.72 -0.39)"/><path class="cls-12" d="M5.63,41.49c.17-.33-.16-.83-.73-1.1s-1.16-.23-1.32.1.17.83.73,1.11S5.47,41.82,5.63,41.49Z" transform="translate(-0.72 -0.39)"/><path class="cls-12" d="M8.3,43.35c.55-.31.84-.83.66-1.15s-.78-.33-1.33,0S6.79,43,7,43.34,7.76,43.67,8.3,43.35Z" transform="translate(-0.72 -0.39)"/><path class="cls-11" d="M30.89,39.92c.74-.11,1.3-.51,1.24-.87s-.71-.57-1.46-.45-1.3.51-1.24.88S30.14,40,30.89,39.92Z" transform="translate(-0.72 -0.39)"/><path class="cls-11" d="M25.43,41.67c.75-.12,1.3-.51,1.25-.88s-.72-.56-1.46-.45-1.31.52-1.25.88S24.68,41.79,25.43,41.67Z" transform="translate(-0.72 -0.39)"/><path class="cls-11" d="M32.32,36.28c.2-.31-.15-.89-.79-1.3s-1.31-.49-1.51-.18.15.89.78,1.3S32.12,36.59,32.32,36.28Z" transform="translate(-0.72 -0.39)"/><path class="cls-12" d="M30.42,43.35c.18-.32-.11-.84-.66-1.16s-1.13-.31-1.32,0,.11.84.65,1.16S30.23,43.67,30.42,43.35Z" transform="translate(-0.72 -0.39)"/><path class="cls-11" d="M16.68,43c.08-.36-.36-.76-1-.89s-1.17.05-1.25.41.36.77,1,.9S16.61,43.37,16.68,43Z" transform="translate(-0.72 -0.39)"/><path class="cls-11" d="M18.79,40.67c.84,0,1.51-.38,1.49-.75s-.72-.63-1.56-.59-1.51.39-1.49.76S18,40.72,18.79,40.67Z" transform="translate(-0.72 -0.39)"/><path class="cls-11" d="M15.63,39.65c.57-.25.92-.73.78-1.07s-.74-.41-1.32-.16-.93.73-.78,1.07S15.05,39.9,15.63,39.65Z" transform="translate(-0.72 -0.39)"/><path class="cls-11" d="M13.05,37.67c.13-.35-.23-.82-.82-1.05s-1.17-.14-1.31.2.23.81.82,1S12.91,38,13.05,37.67Z" transform="translate(-0.72 -0.39)"/><path class="cls-13" d="M10.19,34.93c.12-.62-.09-1.18-.45-1.24s-.76.38-.87,1,.1,1.18.46,1.24S10.08,35.55,10.19,34.93Z" transform="translate(-0.72 -0.39)"/><path class="cls-13" d="M17.09,35.88c.05-.36-.41-.74-1-.83s-1.17.12-1.23.49.4.74,1,.83S17,36.25,17.09,35.88Z" transform="translate(-0.72 -0.39)"/><path class="cls-11" d="M27.74,34.53c.54-.33.82-.85.63-1.17s-.79-.3-1.33,0-.82.85-.62,1.16S27.2,34.86,27.74,34.53Z" transform="translate(-0.72 -0.39)"/><path class="cls-11" d="M7.1,34c.14-.35-.22-.81-.81-1s-1.17-.14-1.31.2.23.81.81,1S7,34.32,7.1,34Z" transform="translate(-0.72 -0.39)"/><path class="cls-12" d="M22,43.37c.56-.29.88-.8.71-1.12s-.77-.37-1.33-.08-.87.79-.7,1.12S21.39,43.65,22,43.37Z" transform="translate(-0.72 -0.39)"/><path class="cls-13" d="M22.56,35.9c.72-.23,1.21-.7,1.1-1.06s-.79-.45-1.51-.22-1.21.71-1.1,1.06S21.84,36.13,22.56,35.9Z" transform="translate(-0.72 -0.39)"/><path class="cls-13" d="M27.56,30.87c.18-.32-.22-.88-.88-1.24s-1.35-.38-1.53-.06.22.88.89,1.24S27.39,31.2,27.56,30.87Z" transform="translate(-0.72 -0.39)"/><path class="cls-13" d="M8.65,31.42a.86.86,0,0,0,.4-1.1c-.21-.3-.73-.3-1.17,0s-.62.79-.41,1.1S8.21,31.72,8.65,31.42Z" transform="translate(-0.72 -0.39)"/><path class="cls-13" d="M13,34.51c.43-.3.61-.8.4-1.1a.85.85,0,0,0-1.17,0c-.43.3-.62.79-.41,1.09A.86.86,0,0,0,13,34.51Z" transform="translate(-0.72 -0.39)"/><path class="cls-13" d="M24.06,32.57c.44-.3.62-.8.41-1.1a.85.85,0,0,0-1.17,0c-.44.3-.62.79-.41,1.09S23.62,32.87,24.06,32.57Z" transform="translate(-0.72 -0.39)"/><path class="cls-13" d="M23.25,28.53c.14-.35-.15-.78-.64-1s-1-.08-1.15.27.16.78.65,1A.87.87,0,0,0,23.25,28.53Z" transform="translate(-0.72 -0.39)"/><path class="cls-13" d="M11.81,31c.5-.17.82-.59.7-.94a.85.85,0,0,0-1.12-.33c-.51.17-.82.59-.7.94S11.31,31.14,11.81,31Z" transform="translate(-0.72 -0.39)"/><path class="cls-13" d="M14.54,27.79c0-.37-.36-.71-.89-.77s-1,.2-1,.57.36.71.89.76S14.5,28.16,14.54,27.79Z" transform="translate(-0.72 -0.39)"/><path class="cls-11" d="M27.32,38c.72-.24,1.21-.71,1.09-1.06s-.79-.45-1.51-.22-1.2.71-1.09,1.06S26.6,38.24,27.32,38Z" transform="translate(-0.72 -0.39)"/><path class="cls-11" d="M23.93,39.27c.17-.33-.23-.88-.9-1.23s-1.35-.37-1.53,0,.24.88.91,1.23S23.76,39.6,23.93,39.27Z" transform="translate(-0.72 -0.39)"/><path class="cls-14" d="M14.8,31.62c.71-.23,1.2-.71,1.09-1.06s-.79-.45-1.51-.21-1.21.71-1.09,1.06S14.08,31.86,14.8,31.62Z" transform="translate(-0.72 -0.39)"/><path class="cls-15" d="M18.67,7.27a11.73,11.73,0,0,1,.37,3,33.3,33.3,0,0,1-7.23,1,33.75,33.75,0,0,1-7.21-1,12.82,12.82,0,0,1,.35-3c.7-2.12,2.86-4,6.86-4S17.85,5.18,18.67,7.27Z" transform="translate(-0.72 -0.39)"/><path class="cls-16" d="M19,10c0,2.22-1.81,3.71-7.23,3.71S4.57,12.22,4.57,10s3.24-4,7.24-4S19,7.78,19,10Z" transform="translate(-0.72 -0.39)"/><path class="cls-17" d="M17.15,9.08,18,8.73l-.33-.94-.72,1Z" transform="translate(-0.72 -0.39)"/><path class="cls-17" d="M16.33,8.92l.09-.81L16,7.7l-.18,1.23Z" transform="translate(-0.72 -0.39)"/><path class="cls-17" d="M11.59,8.3l.1-.81-.43-.41,0,.62v.61Z" transform="translate(-0.72 -0.39)"/><path class="cls-17" d="M10.18,8.21l.33.1.07-.76-.49-.19Z" transform="translate(-0.72 -0.39)"/><path class="cls-17" d="M7.67,8.56l.13-.64L7,7.7,7.1,8.84Z" transform="translate(-0.72 -0.39)"/><path class="cls-18" d="M16.82,7.38A.49.49,0,0,0,16,7.8c.07.16.22.26.17.45s-.19.21-.46.19a.55.55,0,0,1-.5-.45c-.19-.91-.75-1.11-1.17-.9s0,.5-.28.62A.56.56,0,0,1,13,7.57c-.13-.16,0-.42-.22-.73A1.05,1.05,0,0,0,11.24,7c-.1.36.24.38.25.7s-.59.49-.89.36c-.62-.26,0-.23,0-.63-.08-.56-.87-.38-1.05-.28-.48.29-.3.53-.42.71-.28.41-.7.19-.92.06s-.26-.67-.93-.46c-.46.14-.27.46-.08.67a.19.19,0,0,1-.07.3,1.06,1.06,0,0,1-1-.24.79.79,0,0,0-.9.08c-.24.26.49.4.2.66s-.56-.11-.62-.2c-.37-.5-1,.57-.49.69a.46.46,0,0,1,.31.71c-.18.3-.53-.42-.42.81a2.22,2.22,0,0,0,1.15,1.63c.61.41,11.73,1,13.27.07.39-.24,1.45-1.72,1.17-2.27-.41-.8-.46.22-.73-.08-.57-.65.31-.72.16-1.11s-.28-.07-.44-.23-.13-.36,0-.52-.48-.71-.88-.71.07.48-.18.6-.41,0-.67-.24S17.12,7.59,16.82,7.38Z" transform="translate(-0.72 -0.39)"/><path class="cls-19" d="M18.67,12.72a11.69,11.69,0,0,1,.37,3,33.3,33.3,0,0,1-7.23,1,33.75,33.75,0,0,1-7.21-1,12.78,12.78,0,0,1,.35-3c.7-2.12,2.86-4,6.86-4S17.85,10.63,18.67,12.72Z" transform="translate(-0.72 -0.39)"/><path class="cls-20" d="M19,15.45c0,2.21-1.81,3.71-7.23,3.71s-7.24-1.5-7.24-3.71,3.24-4,7.24-4S19,13.23,19,15.45Z" transform="translate(-0.72 -0.39)"/><path class="cls-21" d="M9.63,10c.38-.07.65-.28.61-.48s-.36-.3-.74-.23-.65.28-.61.48S9.26,10,9.63,10Z" transform="translate(-0.72 -0.39)"/><path class="cls-21" d="M11.65,9.6c.38,0,.67-.22.66-.42s-.34-.34-.72-.31-.67.22-.66.42S11.27,9.62,11.65,9.6Z" transform="translate(-0.72 -0.39)"/><path class="cls-22" d="M11.05,10.3c.38,0,.68-.22.66-.42s-.34-.33-.71-.31-.68.22-.66.42S10.67,10.33,11.05,10.3Z" transform="translate(-0.72 -0.39)"/><path class="cls-22" d="M13.76,10.1c0-.2-.3-.37-.68-.38s-.7.14-.7.34.3.37.68.38S13.75,10.3,13.76,10.1Z" transform="translate(-0.72 -0.39)"/><path class="cls-21" d="M11.94,10.77c.38,0,.68-.2.67-.4s-.32-.35-.7-.33-.68.2-.67.4S11.56,10.78,11.94,10.77Z" transform="translate(-0.72 -0.39)"/><path class="cls-21" d="M14.49,9.47c0-.2-.25-.4-.63-.46s-.7.06-.73.26.25.41.63.46S14.46,9.67,14.49,9.47Z" transform="translate(-0.72 -0.39)"/><path class="cls-22" d="M8.65,10.73c.35-.15.56-.43.48-.61s-.43-.2-.78,0-.56.44-.47.62S8.31,10.89,8.65,10.73Z" transform="translate(-0.72 -0.39)"/><path class="cls-22" d="M13.13,11.29c.38,0,.69-.16.69-.36s-.31-.36-.69-.36-.69.16-.69.36S12.75,11.29,13.13,11.29Z" transform="translate(-0.72 -0.39)"/><path class="cls-22" d="M15.19,10.17c0-.2-.29-.38-.67-.4s-.7.12-.71.32.29.38.67.4S15.17,10.37,15.19,10.17Z" transform="translate(-0.72 -0.39)"/><path class="cls-23" d="M8.34,11.64c.36-.13.6-.38.54-.57s-.41-.24-.77-.12-.6.37-.54.56S8,11.76,8.34,11.64Z" transform="translate(-0.72 -0.39)"/><path class="cls-23" d="M15.49,11c0-.2-.25-.41-.62-.47s-.71,0-.74.25.25.41.62.47S15.46,11.24,15.49,11Z" transform="translate(-0.72 -0.39)"/><path class="cls-23" d="M17.06,11.7c.08-.18-.14-.45-.49-.6s-.7-.12-.78.07.14.45.49.6S17,11.89,17.06,11.7Z" transform="translate(-0.72 -0.39)"/><path class="cls-23" d="M16.56,10.5c.06-.19-.18-.43-.55-.55s-.7,0-.76.14.18.44.55.55S16.5,10.7,16.56,10.5Z" transform="translate(-0.72 -0.39)"/><path class="cls-23" d="M7.41,10.72c.32-.2.51-.49.4-.67s-.45-.15-.77,0-.51.49-.41.66S7.08,10.91,7.41,10.72Z" transform="translate(-0.72 -0.39)"/><path class="cls-23" d="M7,11.78c.33-.19.51-.49.41-.66s-.45-.16-.78,0-.51.49-.41.66S6.63,12,7,11.78Z" transform="translate(-0.72 -0.39)"/><path class="cls-17" d="M18,14.75l-.09-.81.43.09-.11,1.11Z" transform="translate(-0.72 -0.39)"/><path class="cls-17" d="M6.35,14.68l-.89-.35.33-.94.72,1Z" transform="translate(-0.72 -0.39)"/><path class="cls-17" d="M7.17,14.52l-.09-.81.43-.42.18,1.24Z" transform="translate(-0.72 -0.39)"/><path class="cls-17" d="M11.9,13.9l-.09-.81.43-.41v1.23Z" transform="translate(-0.72 -0.39)"/><path class="cls-17" d="M13.32,13.81l-.33.1-.07-.77.49-.18Z" transform="translate(-0.72 -0.39)"/><path class="cls-17" d="M15.83,14.16l-.14-.64.82-.23-.11,1.15Z" transform="translate(-0.72 -0.39)"/><path class="cls-24" d="M6.68,13a.48.48,0,0,1,.81.42c-.06.16-.21.26-.16.44s.19.22.46.2a.54.54,0,0,0,.5-.46c.18-.91.75-1.11,1.17-.9s0,.5.27.63a.58.58,0,0,0,.75-.15c.13-.15,0-.41.21-.73a1.07,1.07,0,0,1,1.57.16c.1.37-.24.39-.26.7s.59.49.9.37c.62-.26,0-.23,0-.64s.86-.38,1.05-.27c.48.29.3.53.42.71.28.41.7.18.92.06s.26-.67.93-.47c.46.14.27.47.08.67a.2.2,0,0,0,.06.3c.44.2.78-.1,1-.23a.79.79,0,0,1,.91.08c.24.25-.5.4-.21.66s.56-.12.63-.21c.37-.5.93.43.49.7s.21.37.21.54a2.86,2.86,0,0,1-1.26,2.61c-.6.4-11.73,1-13.27.06-.66-.4-1.08-2.27-.65-2.64s-.09-.42.06-.81.28-.07.44-.23.13-.37,0-.53.48-.7.87-.7-.07.47.18.6.41,0,.68-.24S6.38,13.19,6.68,13Z" transform="translate(-0.72 -0.39)"/><path class="cls-25" d="M18.17,18.17c-.63.41-11.39,1.1-13.27.07C4.11,17.81,4.07,16,4.07,16l.34-.66s.48,1,.87,1.15-.43-2.27-.43-2.27,1.38,2,1.93,2S7.23,14,7.23,14s.8,3,1.27,3.06.38-3.32.78-3.66,1.14,4.14,1.62,4.36.34-3.88.81-4.36.11,3.52,1,3.74.64-3.25,1.57-3.47c.51-.12-.2,3.36.51,3.47,1.21.2,1.45-2.78,2.11-3,.42-.14,0,2.74.25,3s2.32-1.45,2.32-1.45A3,3,0,0,1,18.17,18.17Z" transform="translate(-0.72 -0.39)"/><path class="cls-26" d="M18.67,18.67a11.69,11.69,0,0,1,.37,3,33.3,33.3,0,0,1-7.23,1,33.75,33.75,0,0,1-7.21-1,12.78,12.78,0,0,1,.35-3c.7-2.12,2.86-4,6.86-4S17.85,16.58,18.67,18.67Z" transform="translate(-0.72 -0.39)"/><path class="cls-27" d="M19,21.39c0,2.22-2,1.39-7.45,1.39s-7,.83-7-1.39,3.24-4,7.24-4S19,19.18,19,21.39Z" transform="translate(-0.72 -0.39)"/><path class="cls-17" d="M17.15,20.48l.89-.35-.33-.94-.72,1Z" transform="translate(-0.72 -0.39)"/><path class="cls-17" d="M16.33,20.32l.09-.81L16,19.1l-.18,1.23Z" transform="translate(-0.72 -0.39)"/><path class="cls-17" d="M11.59,19.7l.1-.8-.43-.42,0,.62v.62Z" transform="translate(-0.72 -0.39)"/><path class="cls-17" d="M10.18,19.61l.33.11.07-.77-.49-.19Z" transform="translate(-0.72 -0.39)"/><path class="cls-17" d="M7.67,20l.13-.64L7,19.1l.11,1.14Z" transform="translate(-0.72 -0.39)"/><path class="cls-28" d="M16.82,18.78a.49.49,0,0,0-.82.42c.07.16.22.26.17.45s-.19.21-.46.19a.55.55,0,0,1-.5-.45c-.19-.91-.75-1.11-1.17-.9s0,.5-.28.62A.56.56,0,0,1,13,19c-.13-.16,0-.41-.22-.73a1.05,1.05,0,0,0-1.56.16c-.1.36.24.38.25.7s-.59.49-.89.36c-.62-.26,0-.23,0-.63-.08-.56-.87-.38-1.05-.27-.48.28-.3.53-.42.7-.28.41-.7.19-.92.06s-.26-.67-.93-.46c-.46.14-.27.47-.08.67a.19.19,0,0,1-.07.3,1.06,1.06,0,0,1-1-.24.79.79,0,0,0-.9.08c-.24.26.5.4.21.66s-.57-.11-.63-.2c-.37-.5-.93.43-.49.69s-.22.38-.22.55A2.89,2.89,0,0,0,5.32,24c.61.41,11.73,1,13.27.07.67-.41,1.08-2.28.66-2.65s.08-.41-.06-.8-.29-.08-.44-.24a.34.34,0,0,1,0-.52c.11-.17-.48-.71-.87-.71s.07.48-.18.6-.41,0-.68-.24S17.12,19,16.82,18.78Z" transform="translate(-0.72 -0.39)"/><path class="cls-29" d="M19.47,23.18,4.6,23.1l-.84-2.75a6.18,6.18,0,0,1,.84.27c.48.2.47.86.86,1s0-1.9,0-1.9,1.25,2.46,1.8,2.52-.07-2.72-.07-2.72.84,2,1.32,2.05.3-2.29.7-2.63,1.21,3.11,1.69,3.34.31-2.75.78-3.22.15,2.37,1,2.6.54-2.33,1.47-2.54c.51-.12-.09,2.43.61,2.54,1.22.19,1.59-1.56,2.25-1.77.42-.13-.16,1.53.12,1.74s2.16-1.46,2.16-1.46Z" transform="translate(-0.72 -0.39)"/><path class="cls-21" d="M9.37,4.51c.4,0,.72-.23.7-.44s-.36-.36-.76-.33-.72.23-.7.44S9,4.54,9.37,4.51Z" transform="translate(-0.72 -0.39)"/><path class="cls-22" d="M10.36,5c.38,0,.68-.21.66-.41s-.33-.34-.71-.31-.68.21-.66.41S10,5,10.36,5Z" transform="translate(-0.72 -0.39)"/><path class="cls-21" d="M12.35,4.14c0-.21-.32-.39-.73-.4s-.74.15-.74.37.32.39.72.4S12.34,4.36,12.35,4.14Z" transform="translate(-0.72 -0.39)"/><path class="cls-22" d="M14.44,4.62c0-.2-.3-.37-.68-.38s-.69.14-.7.34.3.37.68.38S14.44,4.82,14.44,4.62Z" transform="translate(-0.72 -0.39)"/><path class="cls-21" d="M11.94,5.29c.38,0,.68-.2.67-.4s-.32-.35-.7-.33-.68.2-.67.4S11.56,5.31,11.94,5.29Z" transform="translate(-0.72 -0.39)"/><path class="cls-22" d="M8.65,5.25c.35-.15.56-.43.48-.61s-.43-.2-.78,0-.56.43-.47.61S8.31,5.41,8.65,5.25Z" transform="translate(-0.72 -0.39)"/><path class="cls-23" d="M8.34,6.16c.36-.12.6-.38.54-.57s-.41-.24-.77-.12-.6.37-.54.56S8,6.28,8.34,6.16Z" transform="translate(-0.72 -0.39)"/><path class="cls-23" d="M15.49,5.56c0-.2-.25-.4-.62-.47s-.71,0-.74.25.25.41.62.47S15.46,5.76,15.49,5.56Z" transform="translate(-0.72 -0.39)"/><path class="cls-23" d="M16.56,5c.06-.2-.18-.44-.55-.56s-.7,0-.76.14.18.44.55.56S16.5,5.22,16.56,5Z" transform="translate(-0.72 -0.39)"/><path class="cls-23" d="M7.41,5.24c.32-.2.51-.49.4-.67s-.45-.15-.77,0-.51.49-.41.67S7.08,5.43,7.41,5.24Z" transform="translate(-0.72 -0.39)"/><path class="cls-23" d="M7,6.3c.33-.19.51-.49.41-.66s-.45-.16-.78,0-.51.49-.41.66S6.63,6.5,7,6.3Z" transform="translate(-0.72 -0.39)"/><path class="cls-21" d="M10.28,15.73c.38,0,.67-.22.66-.42S10.6,15,10.22,15s-.67.22-.66.42S9.9,15.76,10.28,15.73Z" transform="translate(-0.72 -0.39)"/><path class="cls-22" d="M10.36,16.43c.38,0,.68-.21.66-.41s-.33-.34-.71-.31-.68.21-.66.41S10,16.46,10.36,16.43Z" transform="translate(-0.72 -0.39)"/><path class="cls-21" d="M13.07,15.38c0-.2-.3-.37-.68-.38s-.69.15-.7.35.3.37.68.38S13.06,15.58,13.07,15.38Z" transform="translate(-0.72 -0.39)"/><path class="cls-22" d="M14.44,16.09c0-.2-.3-.37-.68-.38s-.69.14-.69.34.3.37.68.38S14.44,16.29,14.44,16.09Z" transform="translate(-0.72 -0.39)"/><path class="cls-21" d="M11.94,16.76c.38,0,.68-.2.67-.4s-.32-.34-.7-.32-.68.19-.67.39S11.56,16.78,11.94,16.76Z" transform="translate(-0.72 -0.39)"/><path class="cls-21" d="M14.5,15.46c0-.19-.26-.4-.63-.45s-.71.06-.74.25.26.41.63.46S14.47,15.66,14.5,15.46Z" transform="translate(-0.72 -0.39)"/><path class="cls-22" d="M8.65,16.73c.35-.16.56-.44.48-.62s-.43-.2-.78,0-.56.43-.47.61S8.31,16.89,8.65,16.73Z" transform="translate(-0.72 -0.39)"/><path class="cls-23" d="M8.34,17.63c.36-.12.6-.37.54-.56s-.41-.25-.77-.13-.6.38-.54.57S8,17.75,8.34,17.63Z" transform="translate(-0.72 -0.39)"/><path class="cls-23" d="M15.49,17c0-.19-.24-.4-.62-.47s-.7.05-.74.25.25.41.63.47S15.46,17.23,15.49,17Z" transform="translate(-0.72 -0.39)"/><path class="cls-23" d="M17.63,17.71c.08-.19-.15-.45-.51-.59s-.7-.1-.77.09.15.45.51.59S17.56,17.9,17.63,17.71Z" transform="translate(-0.72 -0.39)"/><path class="cls-23" d="M16.57,16.5c.05-.19-.19-.44-.55-.56s-.71,0-.77.14.19.44.55.56S16.51,16.69,16.57,16.5Z" transform="translate(-0.72 -0.39)"/><path class="cls-23" d="M7.41,16.71c.32-.19.51-.49.41-.66s-.45-.16-.78,0-.51.49-.41.66S7.08,16.9,7.41,16.71Z" transform="translate(-0.72 -0.39)"/><path class="cls-23" d="M6.79,18c.32-.19.51-.49.4-.66s-.45-.16-.77,0-.51.49-.41.66S6.46,18.2,6.79,18Z" transform="translate(-0.72 -0.39)"/><path class="cls-30" d="M49.62,29.49a1,1,0,0,0-1.17-.91c-.17-.39-.7-.43-1.15-.43a1.67,1.67,0,0,0-.69.17.89.89,0,0,1-.78,0,1.53,1.53,0,0,0-1.4,0,.89.89,0,0,1-.78,0,1.51,1.51,0,0,0-1.39,0,.89.89,0,0,1-.78,0,1.53,1.53,0,0,0-1.4,0,.89.89,0,0,1-.78,0,1.67,1.67,0,0,0-.7-.17c-.45,0-1.06.06-1.23.46a1.29,1.29,0,0,0-1,.8,2.31,2.31,0,0,0-.47,1.42v9.54a2.38,2.38,0,0,0,2.37,2.38h9.42A2.39,2.39,0,0,0,50,40.37V30.82A2.27,2.27,0,0,0,49.62,29.49Z" transform="translate(-0.72 -0.39)"/><g class="cls-4"><path class="cls-31" d="M40.17,32.59a5,5,0,0,1-1.16.27,2.58,2.58,0,0,1-1.8-1.2c-.21-.39.72-.44.8-.32.39.71,1.59.17,2.1.22C41,31.62,41.62,32.18,40.17,32.59Z" transform="translate(-0.72 -0.39)"/></g><path class="cls-32" d="M40.76,32s-.17.22-1.24.21l-2.63-2.14c-.19-.16.18-.46.41-.58l.15-.08a.53.53,0,0,1,.39,0l3.4.89a.36.36,0,0,1,.27.51l-.6,1.08A.43.43,0,0,1,40.76,32Z" transform="translate(-0.72 -0.39)"/><path class="cls-33" d="M39.44,32.2l-1.91-.42a.31.31,0,0,1-.22-.17l-.53-1.53c-.07-.2.17-.37.4-.31l3.08.91c.17.05.25.19.19.32L40,32A.48.48,0,0,1,39.44,32.2Z" transform="translate(-0.72 -0.39)"/><g class="cls-4"><path class="cls-31" d="M40.47,35.81c.22.09.18.46,1.32.4s2.18-.36,2.5-1c.21-.4-.72-.45-.79-.32-.39.7-1.59.17-2.11.21C40.52,35.22,40.15,35.69,40.47,35.81Z" transform="translate(-0.72 -0.39)"/></g><path class="cls-32" d="M41.17,35.78l2.69-.67.18-1-.77-.62a.72.72,0,0,0-.35-.14l-2-.19c-.24.08-.64.6-.54.83l.14,1.42Z" transform="translate(-0.72 -0.39)"/><path class="cls-33" d="M41.52,35.77l2.12-.45a.47.47,0,0,0,.34-.27l.17-.39a.48.48,0,0,0-.39-.67l-2.24-.2a.48.48,0,0,0-.52.45l0,1A.47.47,0,0,0,41.52,35.77Z" transform="translate(-0.72 -0.39)"/><g class="cls-4"><path class="cls-31" d="M46,40.12c.21.09.17.46,1.32.4a3.12,3.12,0,0,0,2.5-1c.21-.4-.72-.45-.8-.33-.39.71-1.59.18-2.1.22C46,39.53,45.66,40,46,40.12Z" transform="translate(-0.72 -0.39)"/></g><path class="cls-32" d="M46.68,40.09l2.68-.67.18-1-.77-.62a.69.69,0,0,0-.34-.14L46.14,38c-.24.08-.65.6-.54.83l.39.88Z" transform="translate(-0.72 -0.39)"/><path class="cls-33" d="M47,40.08l2.12-.45a.47.47,0,0,0,.34-.27l.17-.39a.48.48,0,0,0-.39-.67l-2.56.17a.48.48,0,0,0-.52.45l.26.67A.48.48,0,0,0,47,40.08Z" transform="translate(-0.72 -0.39)"/><g class="cls-4"><path class="cls-31" d="M41.47,41.91c-.21.09-.17.46-1.32.4s-2.18-.36-2.5-1c-.21-.4.72-.45.8-.33.39.71,1.59.18,2.1.22C41.42,41.32,41.79,41.79,41.47,41.91Z" transform="translate(-0.72 -0.39)"/></g><path class="cls-32" d="M40.77,41.88l-2.68-.67-.18-1,.77-.61a.61.61,0,0,1,.34-.14l2.29.35c.24.07.65.59.54.83l-.39.87Z" transform="translate(-0.72 -0.39)"/><path class="cls-33" d="M40.42,41.87l-2.12-.45a.47.47,0,0,1-.34-.27l-.17-.39a.48.48,0,0,1,.39-.67l2.56.17a.48.48,0,0,1,.52.45l-.26.67A.48.48,0,0,1,40.42,41.87Z" transform="translate(-0.72 -0.39)"/><path class="cls-34" d="M38.29,32.36a1,1,0,0,0,.41.35l1.16-.23.18-.16c.19-.23-.3-1.42-.93-1.13S38.11,32,38.29,32.36Z" transform="translate(-0.72 -0.39)"/><path class="cls-35" d="M38.82,32.37c.22-.06.39-.19.36-.27s-.23-.11-.45,0-.39.19-.37.27S38.59,32.44,38.82,32.37Z" transform="translate(-0.72 -0.39)"/><path class="cls-34" d="M44.55,35.47c-.36-.33-.71-.16-1.07.05a1.13,1.13,0,0,0-.53.62c-.1.29.78,1.22,1.27.72S44.86,35.74,44.55,35.47Z" transform="translate(-0.72 -0.39)"/><path class="cls-35" d="M44.26,35.9c.18-.14.29-.31.24-.38s-.26,0-.44.12-.3.32-.24.39S44.07,36.05,44.26,35.9Z" transform="translate(-0.72 -0.39)"/><path class="cls-34" d="M46.37,41.93c.16.46.55.48,1,.48a1.2,1.2,0,0,0,.77-.29c.22-.2-.11-1.44-.77-1.24S46.24,41.54,46.37,41.93Z" transform="translate(-0.72 -0.39)"/><path class="cls-35" d="M46.89,42c.23,0,.41-.14.4-.23s-.22-.13-.45-.1-.41.14-.4.23S46.66,42.05,46.89,42Z" transform="translate(-0.72 -0.39)"/><path class="cls-34" d="M35.92,39.5c.16.46.55.48,1,.47a1.14,1.14,0,0,0,.76-.28c.23-.2-.1-1.44-.76-1.24S35.78,39.11,35.92,39.5Z" transform="translate(-0.72 -0.39)"/><path class="cls-35" d="M36.44,39.58c.23,0,.41-.13.39-.22s-.21-.13-.44-.1-.41.13-.4.22S36.2,39.62,36.44,39.58Z" transform="translate(-0.72 -0.39)"/><path class="cls-31" d="M47.85,31.47c.4,0,.72-.17.72-.38s-.32-.39-.72-.39-.72.18-.72.39S47.45,31.47,47.85,31.47Z" transform="translate(-0.72 -0.39)"/><path class="cls-36" d="M47.84,31.07a.73.73,0,0,0,0-1.45.73.73,0,0,0,0,1.45Z" transform="translate(-0.72 -0.39)"/><path class="cls-31" d="M38.45,36.09c.4,0,.72-.17.72-.38s-.32-.39-.72-.39-.72.17-.72.39S38.05,36.09,38.45,36.09Z" transform="translate(-0.72 -0.39)"/><path class="cls-37" d="M38.44,35.68a.72.72,0,1,0-.72-.72A.72.72,0,0,0,38.44,35.68Z" transform="translate(-0.72 -0.39)"/><path class="cls-31" d="M46.43,37.15c.4,0,.72-.18.72-.39s-.32-.38-.72-.38-.72.17-.72.38S46,37.15,46.43,37.15Z" transform="translate(-0.72 -0.39)"/><path class="cls-38" d="M46.43,36.74a.72.72,0,1,0-.72-.72A.72.72,0,0,0,46.43,36.74Z" transform="translate(-0.72 -0.39)"/><path class="cls-31" d="M43.78,42c.4,0,.72-.17.72-.38s-.32-.39-.72-.39-.72.17-.72.39S43.38,42,43.78,42Z" transform="translate(-0.72 -0.39)"/><path class="cls-39" d="M43.77,41.63a.72.72,0,1,0-.72-.72A.72.72,0,0,0,43.77,41.63Z" transform="translate(-0.72 -0.39)"/><path class="cls-31" d="M48,33.73c0,.3-.36.44-1.28.34-.65-.07-.88,0-.88-.29a1,1,0,0,1,.91-1.18A1.09,1.09,0,0,1,48,33.73Z" transform="translate(-0.72 -0.39)"/><path class="cls-40" d="M46.75,33.27c.53,0,1.08.56,1.11.52a1.79,1.79,0,0,0-.18-1l-.92-.54a.23.23,0,0,0-.32.07l-.55.74,0,.76C46.2,33.93,46.22,33.25,46.75,33.27Z" transform="translate(-0.72 -0.39)"/><path class="cls-41" d="M46.59,33.86a1.91,1.91,0,0,0,.52.1c.25,0,.29-.11.57-.08s.2-.19,0-.3L46.77,33a.25.25,0,0,0-.32.08l-.55.74C46.3,34,46.38,33.78,46.59,33.86Z" transform="translate(-0.72 -0.39)"/><path class="cls-42" d="M46.64,33h0a.12.12,0,0,1-.12-.12V32.4a.12.12,0,0,1,.12-.12h0a.12.12,0,0,1,.12.12v.44A.12.12,0,0,1,46.64,33Z" transform="translate(-0.72 -0.39)"/><path class="cls-31" d="M44.58,32c0,.3-.36.44-1.28.34-.65-.07-.88,0-.88-.29a1,1,0,0,1,.91-1.18A1.09,1.09,0,0,1,44.58,32Z" transform="translate(-0.72 -0.39)"/><path class="cls-40" d="M43.38,31.54c.53,0,1.08.56,1.11.52s0-.89-.19-1l-.91-.55a.24.24,0,0,0-.32.08l-.55.74,0,.76C42.83,32.19,42.85,31.52,43.38,31.54Z" transform="translate(-0.72 -0.39)"/><path class="cls-41" d="M43.22,32.13a1.91,1.91,0,0,0,.52.1c.25,0,.28-.11.57-.09s.19-.19,0-.29l-.92-.55a.24.24,0,0,0-.32.08l-.55.74C42.93,32.26,43,32.05,43.22,32.13Z" transform="translate(-0.72 -0.39)"/><path class="cls-42" d="M43.27,31.23h0a.12.12,0,0,1-.12-.12v-.44a.12.12,0,0,1,.12-.12h0a.12.12,0,0,1,.12.12v.44A.12.12,0,0,1,43.27,31.23Z" transform="translate(-0.72 -0.39)"/><path class="cls-31" d="M41,37.93c0,.3-.36.44-1.28.34-.66-.07-.89,0-.89-.29a1,1,0,0,1,.91-1.19A1.1,1.1,0,0,1,41,37.93Z" transform="translate(-0.72 -0.39)"/><path class="cls-40" d="M39.76,37.46c.53,0,1.09.57,1.11.53a1.77,1.77,0,0,0-.18-1l-.92-.55a.24.24,0,0,0-.32.08l-.55.74,0,.76C39.22,38.12,39.23,37.45,39.76,37.46Z" transform="translate(-0.72 -0.39)"/><path class="cls-41" d="M39.61,38.06a1.83,1.83,0,0,0,.52.1c.25,0,.28-.11.57-.09s.19-.19,0-.3l-.92-.54a.24.24,0,0,0-.32.08l-.55.73C39.32,38.19,39.39,38,39.61,38.06Z" transform="translate(-0.72 -0.39)"/><path class="cls-42" d="M39.66,37.16h0a.12.12,0,0,1-.12-.12V36.6a.12.12,0,0,1,.12-.12h0a.12.12,0,0,1,.11.12V37A.11.11,0,0,1,39.66,37.16Z" transform="translate(-0.72 -0.39)"/><path class="cls-43" d="M46.87,13.75c0-2.09-2.81-3.79-6.28-3.79s-6.28,1.7-6.28,3.79a2.83,2.83,0,0,0,1,2.05,4.8,4.8,0,0,0-1.72,3.58c0,2.89,2.81,5.22,6.28,5.22s6.28-2.33,6.28-5.22a4.6,4.6,0,0,0-1.11-3A3.26,3.26,0,0,0,46.87,13.75Z" transform="translate(-0.72 -0.39)"/><path class="cls-44" d="M40.14,24.69c3,0,5.38-2.08,5.38-4.66s-2.41-4.66-5.38-4.66S34.75,17.46,34.75,20,37.16,24.69,40.14,24.69Z" transform="translate(-0.72 -0.39)"/><path class="cls-45" d="M40.14,24.2c3,0,5.38-2.09,5.38-4.67s-2.41-4.66-5.38-4.66S34.75,17,34.75,19.53,37.16,24.2,40.14,24.2Z" transform="translate(-0.72 -0.39)"/><path class="cls-46" d="M40.14,23.26a4.17,4.17,0,0,0,4.43-3.84,4.17,4.17,0,0,0-4.43-3.84c-2.45,0-4.44,1.72-4.44,3.84S37.69,23.26,40.14,23.26Z" transform="translate(-0.72 -0.39)"/><path class="cls-47" d="M40.14,22.16a3,3,0,0,0,3.16-2.74,3.2,3.2,0,0,0-6.33,0A3,3,0,0,0,40.14,22.16Z" transform="translate(-0.72 -0.39)"/><path class="cls-17" d="M45.78,3.15c.88,1.44.17,3.5-1.59,4.6s-3.91.83-4.8-.6-.17-3.5,1.59-4.6S44.89,1.72,45.78,3.15Z" transform="translate(-0.72 -0.39)"/><path class="cls-43" d="M46.36,18.46c-.49,1.45-3.18,1.85-6,.88S35.64,16.41,36.13,15s3.19-1.85,6-.88S46.86,17,46.36,18.46Z" transform="translate(-0.72 -0.39)"/><path class="cls-44" d="M42.36,7.72C41.6,4.84,39.2,3,37,3.58S33.64,7,34.41,9.85s3.16,4.72,5.35,4.13S43.12,10.59,42.36,7.72Z" transform="translate(-0.72 -0.39)"/><path class="cls-17" d="M40.19,13.87c-2.2.59-4.59-1.26-5.36-4.13s.41-5.68,2.6-6.27S42,4.73,42.79,7.6,42.39,13.28,40.19,13.87Z" transform="translate(-0.72 -0.39)"/><path class="cls-48" d="M40,12.93c-1.81.48-3.78-1-4.41-3.41S36,4.85,37.77,4.36s3.78,1,4.41,3.41S41.85,12.44,40,12.93Z" transform="translate(-0.72 -0.39)"/><path class="cls-49" d="M39.71,11.7c-1.29.35-2.7-.73-3.14-2.42s.23-3.34,1.52-3.69,2.7.74,3.15,2.43S41,11.35,39.71,11.7Z" transform="translate(-0.72 -0.39)"/><path class="cls-44" d="M45.35,3.08C42.82,2,40.08,2.84,39.22,4.92s.49,4.61,3,5.67,5.27.24,6.13-1.84S47.88,4.14,45.35,3.08Z" transform="translate(-0.72 -0.39)"/><path class="cls-17" d="M48.53,8.35c-.86,2.08-3.6,2.9-6.13,1.84s-3.87-3.6-3-5.68,3.6-2.9,6.13-1.84S49.39,6.28,48.53,8.35Z" transform="translate(-0.72 -0.39)"/><path class="cls-48" d="M47.76,7.92c-.71,1.71-3,2.39-5,1.52s-3.19-3-2.48-4.67,3-2.39,5-1.52S48.47,6.22,47.76,7.92Z" transform="translate(-0.72 -0.39)"/><path class="cls-49" d="M46.91,7.57A2.89,2.89,0,0,1,43,8.74a3,3,0,0,1-1.93-3.62A2.92,2.92,0,0,1,45,4,2.93,2.93,0,0,1,46.91,7.57Z" transform="translate(-0.72 -0.39)"/><path class="cls-44" d="M45.82,9.15c-2.69.51-4.53,2.71-4.12,4.92s2.93,3.6,5.61,3.09,4.54-2.71,4.13-4.92S48.51,8.65,45.82,9.15Z" transform="translate(-0.72 -0.39)"/><path class="cls-45" d="M51.36,11.55c.41,2.22-1.44,4.42-4.12,4.93S42,15.6,41.62,13.39,43.06,9,45.75,8.47,51,9.34,51.36,11.55Z" transform="translate(-0.72 -0.39)"/><path class="cls-46" d="M50.48,11.62c.34,1.82-1.18,3.64-3.39,4.05s-4.28-.72-4.62-2.53,1.18-3.64,3.39-4.06S50.14,9.8,50.48,11.62Z" transform="translate(-0.72 -0.39)"/><path class="cls-47" d="M49.77,11.75c.29,1.5-1,3-2.79,3.34S43.45,14.5,43.17,13s1-3,2.8-3.34A3.09,3.09,0,0,1,49.77,11.75Z" transform="translate(-0.72 -0.39)"/><path class="cls-43" d="M29.25,15.29c3.47,0,6.28-1.56,6.28-3.5S32.72,8.3,29.25,8.3,23,9.86,23,11.79,25.78,15.29,29.25,15.29Z" transform="translate(-0.72 -0.39)"/><path class="cls-44" d="M41.61,10.63C38.86,9.48,36,10,35.29,11.8s.89,4.18,3.64,5.33,5.58.62,6.32-1.18S44.35,11.78,41.61,10.63Z" transform="translate(-0.72 -0.39)"/><path class="cls-17" d="M45.42,15.1c-.74,1.8-3.57,2.32-6.32,1.18S34.73,12.75,35.46,11,39,8.63,41.78,9.78,46.16,13.31,45.42,15.1Z" transform="translate(-0.72 -0.39)"/><path class="cls-50" d="M44.57,14.66c-.6,1.48-2.93,1.91-5.2,1s-3.6-2.9-3-4.38,2.94-1.91,5.2-1S45.18,13.19,44.57,14.66Z" transform="translate(-0.72 -0.39)"/><path class="cls-51" d="M43.79,14.33c-.5,1.2-2.38,1.55-4.21.78s-2.91-2.35-2.42-3.54,2.37-1.55,4.2-.78S44.28,13.14,43.79,14.33Z" transform="translate(-0.72 -0.39)"/><path class="cls-44" d="M45.78,16.28c-2.53.27-4.44,1.84-4.26,3.48s2.38,2.77,4.91,2.49,4.43-1.84,4.25-3.49S48.31,16,45.78,16.28Z" transform="translate(-0.72 -0.39)"/><path class="cls-43" d="M50.78,19.31C51,21,49.06,22.52,46.53,22.8s-4.73-.83-4.9-2.49,1.72-3.21,4.25-3.49S50.6,17.66,50.78,19.31Z" transform="translate(-0.72 -0.39)"/><path class="cls-17" d="M50.59,18.26c.18,1.65-1.73,3.21-4.26,3.49s-4.72-.83-4.9-2.49,1.73-3.21,4.26-3.49S50.41,16.61,50.59,18.26Z" transform="translate(-0.72 -0.39)"/><path class="cls-50" d="M49.77,18.28c.15,1.36-1.42,2.64-3.5,2.87s-3.89-.69-4-2,1.43-2.64,3.51-2.87S49.62,16.92,49.77,18.28Z" transform="translate(-0.72 -0.39)"/><path class="cls-51" d="M49.05,18.36c.12,1.1-1.15,2.14-2.83,2.32S43.08,20.13,43,19s1.16-2.14,2.84-2.32S48.93,17.26,49.05,18.36Z" transform="translate(-0.72 -0.39)"/><path class="cls-52" d="M24.52,11.74a6.88,6.88,0,0,1-1.63-4.53C22.76,5.1,23.92,5,26.35,4c3.11-1.26,9.73-1.82,9.93,1.08.26,4-1.43,6.8-5.16,8.25A5.69,5.69,0,0,1,24.52,11.74Z" transform="translate(-0.72 -0.39)"/><path class="cls-53" d="M23.31,9.12c-1.34-2.59-.07-5.62,3-6.87S35,1.5,36,4.2s-2.48,7-5.73,7.78C26.84,12.85,24.52,11.45,23.31,9.12Z" transform="translate(-0.72 -0.39)"/><path class="cls-54" d="M25.22,8.05a3.12,3.12,0,0,1,1.87-4.21c1.91-.77,4.05-.28,4.71,1.38a3.75,3.75,0,0,1-2.29,4.59A3.14,3.14,0,0,1,25.22,8.05Z" transform="translate(-0.72 -0.39)"/><path class="cls-43" d="M29.25,25.42c3.47,0,6.28-1.56,6.28-3.49s-2.81-3.5-6.28-3.5S23,20,23,21.93,25.78,25.42,29.25,25.42Z" transform="translate(-0.72 -0.39)"/><path class="cls-52" d="M24.52,22.21a6.87,6.87,0,0,1-1.63-4.52c-.13-2.11,1-2.26,3.46-3.24,3.11-1.25,9.73-1.82,9.93,1.09.26,4-1.43,6.79-5.16,8.25A5.68,5.68,0,0,1,24.52,22.21Z" transform="translate(-0.72 -0.39)"/><path class="cls-55" d="M23.31,19.59C22,17,23.24,14,26.35,12.72S35,12,36,14.68s-2.48,7-5.73,7.78C26.84,23.33,24.52,21.93,23.31,19.59Z" transform="translate(-0.72 -0.39)"/><path class="cls-56" d="M25.22,18.53a3.13,3.13,0,0,1,1.87-4.22c1.91-.77,4.05-.28,4.71,1.38a3.74,3.74,0,0,1-2.29,4.59A3.14,3.14,0,0,1,25.22,18.53Z" transform="translate(-0.72 -0.39)"/></svg>